# xmcd CD database file
#
# Track frame offsets:
#	182
#	13620
#	28415
#	39225
#	55750
#	73670
#	85480
#	101495
#	113860
#	131857
#	156077
#	171342
#	190237
#	206902
#	232835
#	252400
#
# Disc length: 3650 seconds
#
# Revision: 2
# Processed by: cddbd v1.5.2PL0 Copyright (c) Steve Scherf et al.
# Submitted via: CDex 1.70beta2
#
DISCID=e10e4010
DTITLE=Verschiedene Gruppen - Oldie News - Disc 2/2
DYEAR=1986
DGENRE=Oldies
TTITLE0=Les Humphries Singers - We Are Goin' Down Jordan
TTITLE1=Spotnicks - If You Could Read My Mind
TTITLE2=The New Seekers - I'd Like To Teach The World to Sing
TTITLE3=Roger Wittaker - The Last Farewell
TTITLE4=Mouth and McNeal - Hello - A
TTITLE5=John Kincade - Dreams Are Ten A Penny
TTITLE6=Bachmann Turner Overdrive - You Ain't Seen Nothing Yet
TTITLE7=Abba - Waterloo
TTITLE8=Drupi - Sereno e`
TTITLE9=Kevin Johnson - Rock And Roll (I Gave You The Best Years Of My Life)
TTITLE10=Santa Esmeralda - Don't Let Me Be Miss Understood and Esmeralda Suite
TTITLE11=Boney M. - Rivers Of Babylon
TTITLE12=The Abdul Hassan Orchestra - Arabian Affair
TTITLE13=Peaches and Herb - Reunited
TTITLE14=The Boomtown Rats - I Don't Like Mondays
TTITLE15=Communards - Don't Leave Me This Way
EXTD=YEAR: 1986
EXTT0=
EXTT1=
EXTT2=
EXTT3=
EXTT4=
EXTT5=
EXTT6=
EXTT7=
EXTT8=
EXTT9=
EXTT10=
EXTT11=
EXTT12=
EXTT13=
EXTT14=
EXTT15=
PLAYORDER=
